solid OpenSCAD_Model
  facet normal 0 0 -1
    outer loop
      vertex -17.3 0 40
      vertex -21.3 1.6 40
      vertex -17.3 1.5 40
    endloop
  endfacet
  facet normal -0 0 -1
    outer loop
      vertex -21.3 1.6 40
      vertex -22.9 0 40
      vertex -21.3 58.4 40
    endloop
  endfacet
  facet normal 0 0 -1
    outer loop
      vertex -22.9 0 40
      vertex -21.3 1.6 40
      vertex -17.3 0 40
    endloop
  endfacet
  facet normal 0 0 -1
    outer loop
      vertex 28.4 1.6 40
      vertex 30 32.1 40
      vertex 30 0 40
    endloop
  endfacet
  facet normal 0 0 -1
    outer loop
      vertex 28.4 58.4 40
      vertex 28.5 32.1 40
      vertex 28.4 1.6 40
    endloop
  endfacet
  facet normal -0 0 -1
    outer loop
      vertex 30 32.1 40
      vertex 28.4 1.6 40
      vertex 28.5 32.1 40
    endloop
  endfacet
  facet normal 0 0 -1
    outer loop
      vertex -4.5 0 40
      vertex 28.4 1.6 40
      vertex 30 0 40
    endloop
  endfacet
  facet normal 0 0 -1
    outer loop
      vertex -4.5 1.5 40
      vertex 28.4 1.6 40
      vertex -4.5 0 40
    endloop
  endfacet
  facet normal 0 0 -1
    outer loop
      vertex -21.3 1.6 40
      vertex -4.5 1.5 40
      vertex -17.3 1.5 40
    endloop
  endfacet
  facet normal 0 0 -1
    outer loop
      vertex -4.5 1.5 40
      vertex -21.3 1.6 40
      vertex 28.4 1.6 40
    endloop
  endfacet
  facet normal 0 0 -1
    outer loop
      vertex 28.4 58.4 40
      vertex 30 55.9 40
      vertex 28.5 55.9 40
    endloop
  endfacet
  facet normal 0 0 -1
    outer loop
      vertex 28.5 32.1 40
      vertex 28.4 58.4 40
      vertex 28.5 55.9 40
    endloop
  endfacet
  facet normal 0 0 -1
    outer loop
      vertex 30 55.9 40
      vertex 28.4 58.4 40
      vertex 30 60 40
    endloop
  endfacet
  facet normal 0 0 -1
    outer loop
      vertex -21.3 58.4 40
      vertex 30 60 40
      vertex 28.4 58.4 40
    endloop
  endfacet
  facet normal 0 0 -1
    outer loop
      vertex -21.3 58.4 40
      vertex -22.9 60 40
      vertex 30 60 40
    endloop
  endfacet
  facet normal 0 0 -1
    outer loop
      vertex -22.9 60 40
      vertex -21.3 58.4 40
      vertex -22.9 0 40
    endloop
  endfacet
  facet normal 0 0 -1
    outer loop
      vertex -19.8 3.1 40
      vertex 26.9 56.9 40
      vertex 26.9 3.1 40
    endloop
  endfacet
  facet normal -0 0 -1
    outer loop
      vertex 26.9 56.9 40
      vertex -19.8 3.1 40
      vertex -19.8 56.9 40
    endloop
  endfacet
  facet normal 1 -0 0
    outer loop
      vertex 28.4 1.6 40
      vertex 28.4 58.4 38.5
      vertex 28.4 58.4 40
    endloop
  endfacet
  facet normal 1 0 0
    outer loop
      vertex 28.4 58.4 38.5
      vertex 28.4 1.6 40
      vertex 28.4 1.6 38.5
    endloop
  endfacet
  facet normal 0 1 -0
    outer loop
      vertex 28.4 58.4 38.5
      vertex -21.3 58.4 40
      vertex 28.4 58.4 40
    endloop
  endfacet
  facet normal 0 1 0
    outer loop
      vertex -21.3 58.4 40
      vertex 28.4 58.4 38.5
      vertex -21.3 58.4 38.5
    endloop
  endfacet
  facet normal 0 0 -1
    outer loop
      vertex 28.4 1.6 38.5
      vertex 26.9 3.1 38.5
      vertex 28.4 58.4 38.5
    endloop
  endfacet
  facet normal 0 0 -1
    outer loop
      vertex 28.4 1.6 38.5
      vertex -19.8 3.1 38.5
      vertex 26.9 3.1 38.5
    endloop
  endfacet
  facet normal -0 0 -1
    outer loop
      vertex -19.8 3.1 38.5
      vertex -21.3 1.6 38.5
      vertex -19.8 56.9 38.5
    endloop
  endfacet
  facet normal 0 0 -1
    outer loop
      vertex -21.3 1.6 38.5
      vertex -19.8 3.1 38.5
      vertex 28.4 1.6 38.5
    endloop
  endfacet
  facet normal 0 0 -1
    outer loop
      vertex 26.9 56.9 38.5
      vertex 28.4 58.4 38.5
      vertex 26.9 3.1 38.5
    endloop
  endfacet
  facet normal 0 0 -1
    outer loop
      vertex -19.8 56.9 38.5
      vertex 28.4 58.4 38.5
      vertex 26.9 56.9 38.5
    endloop
  endfacet
  facet normal 0 0 -1
    outer loop
      vertex -19.8 56.9 38.5
      vertex -21.3 58.4 38.5
      vertex 28.4 58.4 38.5
    endloop
  endfacet
  facet normal 0 0 -1
    outer loop
      vertex -21.3 58.4 38.5
      vertex -19.8 56.9 38.5
      vertex -21.3 1.6 38.5
    endloop
  endfacet
  facet normal 0 -1 0
    outer loop
      vertex -21.3 1.6 38.5
      vertex 28.4 1.6 40
      vertex -21.3 1.6 40
    endloop
  endfacet
  facet normal 0 -1 -0
    outer loop
      vertex 28.4 1.6 40
      vertex -21.3 1.6 38.5
      vertex 28.4 1.6 38.5
    endloop
  endfacet
  facet normal -1 0 0
    outer loop
      vertex 26.9 3.1 38.5
      vertex 26.9 56.9 40
      vertex 26.9 56.9 38.5
    endloop
  endfacet
  facet normal -1 -0 0
    outer loop
      vertex 26.9 56.9 40
      vertex 26.9 3.1 38.5
      vertex 26.9 3.1 40
    endloop
  endfacet
  facet normal 0 1 -0
    outer loop
      vertex 26.9 3.1 38.5
      vertex -19.8 3.1 40
      vertex 26.9 3.1 40
    endloop
  endfacet
  facet normal 0 1 0
    outer loop
      vertex -19.8 3.1 40
      vertex 26.9 3.1 38.5
      vertex -19.8 3.1 38.5
    endloop
  endfacet
  facet normal 0 -1 0
    outer loop
      vertex -19.8 56.9 38.5
      vertex 26.9 56.9 40
      vertex -19.8 56.9 40
    endloop
  endfacet
  facet normal 0 -1 -0
    outer loop
      vertex 26.9 56.9 40
      vertex -19.8 56.9 38.5
      vertex 26.9 56.9 38.5
    endloop
  endfacet
  facet normal -1 0 0
    outer loop
      vertex -21.3 1.6 38.5
      vertex -21.3 58.4 40
      vertex -21.3 58.4 38.5
    endloop
  endfacet
  facet normal -1 -0 0
    outer loop
      vertex -21.3 58.4 40
      vertex -21.3 1.6 38.5
      vertex -21.3 1.6 40
    endloop
  endfacet
  facet normal 1 -0 0
    outer loop
      vertex -19.8 3.1 40
      vertex -19.8 56.9 38.5
      vertex -19.8 56.9 40
    endloop
  endfacet
  facet normal 1 0 0
    outer loop
      vertex -19.8 56.9 38.5
      vertex -19.8 3.1 40
      vertex -19.8 3.1 38.5
    endloop
  endfacet
  facet normal -1 0 0
    outer loop
      vertex -22.9 0 40
      vertex -22.9 60 41.5
      vertex -22.9 60 40
    endloop
  endfacet
  facet normal -1 -0 0
    outer loop
      vertex -22.9 60 41.5
      vertex -22.9 0 40
      vertex -22.9 0 41.5
    endloop
  endfacet
  facet normal -0 0 1
    outer loop
      vertex -22.9 60 41.5
      vertex 30 0 41.5
      vertex 30 60 41.5
    endloop
  endfacet
  facet normal 0 0 1
    outer loop
      vertex 30 0 41.5
      vertex -22.9 60 41.5
      vertex -22.9 0 41.5
    endloop
  endfacet
  facet normal 1 0 0
    outer loop
      vertex 30 60 41.5
      vertex 30 55.9 40
      vertex 30 60 40
    endloop
  endfacet
  facet normal 1 0 0
    outer loop
      vertex 30 55.9 40
      vertex 30 32.1 40
      vertex 30 55.9 25
    endloop
  endfacet
  facet normal 1 0 0
    outer loop
      vertex 30 60 41.5
      vertex 30 32.1 40
      vertex 30 55.9 40
    endloop
  endfacet
  facet normal 1 -0 0
    outer loop
      vertex 30 0 41.5
      vertex 30 32.1 40
      vertex 30 60 41.5
    endloop
  endfacet
  facet normal 1 0 0
    outer loop
      vertex 30 32.1 40
      vertex 30 0 41.5
      vertex 30 0 40
    endloop
  endfacet
  facet normal 1 0 0
    outer loop
      vertex 30 55.9 25
      vertex 30 32.1 40
      vertex 30 32.1 25
    endloop
  endfacet
  facet normal 0 -1 0
    outer loop
      vertex -17.3 0 24.5
      vertex -4.5 0 40
      vertex -17.3 0 40
    endloop
  endfacet
  facet normal 0 -1 -0
    outer loop
      vertex -4.5 0 40
      vertex -17.3 0 24.5
      vertex -4.5 0 24.5
    endloop
  endfacet
  facet normal 0 -1 0
    outer loop
      vertex -17.3 0 40
      vertex -22.9 0 41.5
      vertex -22.9 0 40
    endloop
  endfacet
  facet normal 0 -1 0
    outer loop
      vertex -4.5 0 40
      vertex -22.9 0 41.5
      vertex -17.3 0 40
    endloop
  endfacet
  facet normal 0 -1 0
    outer loop
      vertex -22.9 0 41.5
      vertex -4.5 0 40
      vertex 30 0 41.5
    endloop
  endfacet
  facet normal 0 -1 -0
    outer loop
      vertex 30 0 41.5
      vertex -4.5 0 40
      vertex 30 0 40
    endloop
  endfacet
  facet normal 0 1 -0
    outer loop
      vertex 30 60 40
      vertex -22.9 60 41.5
      vertex 30 60 41.5
    endloop
  endfacet
  facet normal 0 1 0
    outer loop
      vertex -22.9 60 41.5
      vertex 30 60 40
      vertex -22.9 60 40
    endloop
  endfacet
  facet normal -1 0 0
    outer loop
      vertex 28.5 32.1 25
      vertex 28.5 55.9 40
      vertex 28.5 55.9 25
    endloop
  endfacet
  facet normal -1 -0 0
    outer loop
      vertex 28.5 55.9 40
      vertex 28.5 32.1 25
      vertex 28.5 32.1 40
    endloop
  endfacet
  facet normal 0 1 -0
    outer loop
      vertex 30 55.9 25
      vertex 28.5 55.9 40
      vertex 30 55.9 40
    endloop
  endfacet
  facet normal 0 1 0
    outer loop
      vertex 28.5 55.9 40
      vertex 30 55.9 25
      vertex 28.5 55.9 25
    endloop
  endfacet
  facet normal 0 0 -1
    outer loop
      vertex 28.5 32.1 25
      vertex 30 55.9 25
      vertex 30 32.1 25
    endloop
  endfacet
  facet normal -0 0 -1
    outer loop
      vertex 30 55.9 25
      vertex 28.5 32.1 25
      vertex 28.5 55.9 25
    endloop
  endfacet
  facet normal 0 -1 0
    outer loop
      vertex 28.5 32.1 25
      vertex 30 32.1 40
      vertex 28.5 32.1 40
    endloop
  endfacet
  facet normal 0 -1 -0
    outer loop
      vertex 30 32.1 40
      vertex 28.5 32.1 25
      vertex 30 32.1 25
    endloop
  endfacet
  facet normal -1 0 0
    outer loop
      vertex -17.3 0 24.5
      vertex -17.3 1.5 40
      vertex -17.3 1.5 24.5
    endloop
  endfacet
  facet normal -1 -0 0
    outer loop
      vertex -17.3 1.5 40
      vertex -17.3 0 24.5
      vertex -17.3 0 40
    endloop
  endfacet
  facet normal 1 -0 0
    outer loop
      vertex -4.5 0 40
      vertex -4.5 1.5 24.5
      vertex -4.5 1.5 40
    endloop
  endfacet
  facet normal 1 0 0
    outer loop
      vertex -4.5 1.5 24.5
      vertex -4.5 0 40
      vertex -4.5 0 24.5
    endloop
  endfacet
  facet normal 0 0 -1
    outer loop
      vertex -17.3 0 24.5
      vertex -4.5 1.5 24.5
      vertex -4.5 0 24.5
    endloop
  endfacet
  facet normal -0 0 -1
    outer loop
      vertex -4.5 1.5 24.5
      vertex -17.3 0 24.5
      vertex -17.3 1.5 24.5
    endloop
  endfacet
  facet normal 0 1 -0
    outer loop
      vertex -4.5 1.5 24.5
      vertex -17.3 1.5 40
      vertex -4.5 1.5 40
    endloop
  endfacet
  facet normal 0 1 0
    outer loop
      vertex -17.3 1.5 40
      vertex -4.5 1.5 24.5
      vertex -17.3 1.5 24.5
    endloop
  endfacet
endsolid OpenSCAD_Model
